<?xml version="1.0" encoding="utf-8"?>

<svg version="1.1" id="Layer_1" xmlns="http://www.w3.org/2000/svg" xmlns:xlink="http://www.w3.org/1999/xlink" x="0px" y="0px"
	 viewBox="67.000 43.400 236.800 351.100" style="enable-background:new 68 44.4 234.8 349.1;" xml:space="preserve">

<g transform="translate(0.000000,482.000000) scale(0.100000,-0.100000)">
	<path fill="#231F20" d="M1560,4369c-38-16-58-38-112-122c-28-42-60-84-71-92c-16-11-51-15-135-15c-178,0-207-26-227-200
		c-7-59-17-116-23-125c-5-10-54-41-108-69c-154-80-171-120-109-273c48-118,46-146-11-223c-69-94-84-122-84-158c0-50,23-85,103-153
		c101-87,104-94,84-225c-14-97-14-110,0-145c22-55,59-77,180-108c120-29,122-31,157-146c39-127,82-175,159-175c21,0,78,11,126,25
		c106,31,121,27,201-49c68-64,139-101,178-91c15,4,35,9,45,11c11,2,48,29,83,61c36,32,80,66,99,76c33,18,35,17,121-8
		c113-32,159-32,206,0c38,26,68,88,89,186c14,64,48,92,130,108c126,24,164,44,195,103c17,33,18,68,2,173c-6,44-8,92-5,106
		c4,15,39,53,87,92c44,37,87,82,96,99c22,42,13,99-23,149c-91,127-93,131-93,171c0,23,16,79,36,130c59,144,39,191-111,263
		c-51,25-99,55-107,68c-9,12-18,61-23,112c-8,109-32,167-77,195c-28,17-50,20-148,20c-87,0-121,4-137,15c-12,9-47,53-77,100
		c-63,96-90,118-149,119c-33,0-61-11-127-49c-112-65-137-65-250-1C1639,4375,1600,4386,1560,4369z M2025,3960
		c231-51,425-202,529-415c57-118,70-181,70-345s-12-227-70-346c-245-501-942-584-1300-155c-116,139-174,306-174,501
		c0,276,116,500,335,645C1597,3966,1811,4007,2025,3960z"/>
	<path fill="#231F20" d="M1766,3562c-67-134-90-171-108-175c-13-3-96-15-185-28c-90-12-163-26-163-32c0-5,59-66,132-136l132-127
		l-28-166c-15-91-30-175-33-187c-3-14-1-21,8-21c8,0,86,39,173,85l159,84l166-87c150-80,166-86,168-68c2,12-10,95-26,186l-29,165
		l136,137c75,76,134,139,132,141c-3,2-88,16-189,30c-102,15-186,28-187,30c-1,1-39,76-84,167s-83,167-85,169S1813,3656,1766,3562z"
		/>
	<path fill="#231F20" d="M1106,2190c-255-808-343-1096-339-1103c2-4,88,36,189,89c102,53,190,94,197,91s57-88,112-191
		c55-102,103-186,106-186s70,204,148,452c79,249,151,471,161,493c33,76,52,133,48,148c-1,8-35,44-75,80l-72,66l-68-21
		c-37-11-97-22-133-25c-54-4-73,0-109,19c-55,28-75,55-105,139l-24,64L1106,2190z"/>
	<path fill="#231F20" d="M2520,2179c-14-33-57-69-107-88c-41-17-130-10-216,17l-67,21l-85-75c-47-41-93-74-101-74c-10,0-13-6-9-19
		c20-63,336-1068,338-1075c2-5,52,67,111,160c60,93,109,170,111,171c1,2,88-29,194-68c105-40,194-70,196-67c3,2-43,155-101,339
		c-139,443-176,564-209,687c-16,56-32,102-36,102C2536,2210,2527,2196,2520,2179z"/>
</g>
<script  type="text/javascript">
	<![CDATA[
         var c=window.location.search.split('color=')[1]; c=parseInt(c,16); if(!isNaN(c)){c=c.toString(16);var p=document.getElementsByTagName('path');for(var i=0,l=p.length;i<l;i++){var s=p[i].style;s.fill='#'+c;} var p2=document.getElementsByTagName('polygon');for(var i=0,l=p2.length;i<l;i++){var s=p2[i].style;s.fill='#'+c;} var p3=document.getElementsByTagName('circle');for(var i=0,l=p3.length;i<l;i++){var s=p3[i].style;s.fill='#'+c;} }
        
		]]>
</script>
</svg>
