<?xml version="1.0" encoding="utf-8"?>

<svg version="1.1" id="Layer_1" xmlns="http://www.w3.org/2000/svg" xmlns:xlink="http://www.w3.org/1999/xlink" x="0px" y="0px"
	 viewBox="-106.800 -58.500 292.500 288.100" style="enable-background:new -105.8 -57.5 290.5 286.1;" xml:space="preserve">

<g transform="translate(0.000000,482.000000) scale(0.100000,-0.100000)">
	<path fill="#231F20" d="M1092.3,5390.7c-152-17-283-80-398-190c-66-62-76-75-60-81c10-4,54-17,98-30c383-111,697-378,881-747l52-105
		l46,63c95,129,136,251,136,411c0,195-61,341-199,479c-68,68-104,94-171,128C1352.3,5379.7,1217.3,5405.7,1092.3,5390.7z"/>
	<path fill="#231F20" d="M-412.7,5384.7c-229-32-364-101-489-250c-203-243-209-600-14-849l45-57l32,69c136,300,348,523,646,681
		c90,48,291,122,331,122c36,0,30,23-17,72c-93,95-217,166-338,192C-286.7,5380.7-375.7,5389.7-412.7,5384.7z"/>
	<path fill="#231F20" d="M169.3,5034.7c-98-17-241-66-333-112c-123-62-219-132-324-237c-208-207-323-441-362-740
		c-38-284,36-597,195-833l65-97l-21-192c-14-126-18-201-13-217c30-77,178-100,236-36c11,12,21,49,27,102c5,46,11,88,13,95
		c3,8,28-2,72-29c241-147,465-206,732-195c211,9,343,46,545,155c65,35,119,62,121,60c1-2,7-40,13-86c6-53,16-90,27-102
		c58-64,206-41,236,37c6,17,2,80-11,196c-12,94-19,176-17,182c3,6,29,44,59,86c208,291,281,665,197,1019c-113,482-514,859-1003,945
		C514.3,5053.7,273.3,5053.7,169.3,5034.7z M632.3,4736.7c183-47,329-132,461-268c196-201,284-434,271-720
		c-32-746-877-1170-1501-754c-376,251-530,738-365,1154C-320.7,4604.7,164.3,4855.7,632.3,4736.7z"/>
	<path fill="#231F20" d="M360.3,4495.7c-17-7-36-22-42-34c-7-13-11-136-11-363c0-341,0-343,23-370c39-48,361-297,387-300
		c31-4,95,25,104,47c8,21,8,69,0,89c-7,19-232,199-277,223c-18,9-35,21-39,27s-8,150-8,319c0,339-1,345-62,366
		C397.3,4512.7,399.3,4512.7,360.3,4495.7z"/>
</g>
<script  type="text/javascript">
	<![CDATA[
         var c=window.location.search.split('color=')[1]; c=parseInt(c,16); if(!isNaN(c)){c=c.toString(16);var p=document.getElementsByTagName('path');for(var i=0,l=p.length;i<l;i++){var s=p[i].style;s.fill='#'+c;} var p2=document.getElementsByTagName('polygon');for(var i=0,l=p2.length;i<l;i++){var s=p2[i].style;s.fill='#'+c;} var p3=document.getElementsByTagName('circle');for(var i=0,l=p3.length;i<l;i++){var s=p3[i].style;s.fill='#'+c;} }
        
		]]>
</script>
</svg>
